# xmcd
#
# Track frame offsets: 
#        150
#        1776
#        23461
#        50869
#        78490
#        97863
#        110588
#        136142
#        157375
#        189146
#        212540
#        215632
#
# Disc length: 3254 seconds
#
# Revision: 1
# Processed by: cddbd v1.5.2PL0 Copyright (c) Steve Scherf et al.
# Submitted via: ExactAudioCopy v1.0b3
#
DISCID=970cb40c
DTITLE=Gotye - Like Drawing Blood
DYEAR=2012
DGENRE=Alternative
TTITLE0=Like Drawing Blood
TTITLE1=The Only Way
TTITLE2=Hearts a Mess
TTITLE3=Coming Back
TTITLE4=Thanks for Your Time
TTITLE5=Learnalilgivinanlovin
TTITLE6=Puzzle with a Piece Missing
TTITLE7=A Distinctive Sound
TTITLE8=Seven Hours with a Backseat Driver
TTITLE9=Night Drive
TTITLE10=Worn Out Blues
TTITLE11=A Distinctive Sound (Bonus Track For Japan) 
EXTD=
EXTT0=
EXTT1=
EXTT2=
EXTT3=
EXTT4=
EXTT5=
EXTT6=
EXTT7=
EXTT8=
EXTT9=
EXTT10=
EXTT11=
PLAYORDER=
